<svg xmlns="http://www.w3.org/2000/svg" viewBox="0 0 806.77 319.69"><defs><style>.cls-1{fill:#e4ac5a;}</style></defs><title>アセット 1</title><g id="レイヤー_2" data-name="レイヤー 2"><g id="レイヤー_1-2" data-name="レイヤー 1"><path class="cls-1" d="M205.21,86.1A216.67,216.67,0,0,0,202,59a80.32,80.32,0,0,0-8.48-24.43,50.45,50.45,0,0,0-16.06-17.67Q167.36,10.07,151.47,10a69.84,69.84,0,0,0-33,8.09A107.32,107.32,0,0,0,90.18,39.77a159.4,159.4,0,0,0-22.73,31,238.76,238.76,0,0,0-16.73,36,253.21,253.21,0,0,0-10.53,36.8,169.3,169.3,0,0,0-3.75,33.32,112.65,112.65,0,0,0,3.25,27.72,68.33,68.33,0,0,0,10.23,22.89A48,48,0,0,0,68.31,243q11.41,5.64,27.7,5.66a76.84,76.84,0,0,0,31.79-6.53,118,118,0,0,0,27.36-17,165.52,165.52,0,0,0,23.1-23.41,309.85,309.85,0,0,0,19-26.13l5,3.5A169.55,169.55,0,0,1,181,210.67a195.73,195.73,0,0,1-29.32,28.24,155.9,155.9,0,0,1-34.53,20.48,92.63,92.63,0,0,1-37,7.88A85.56,85.56,0,0,1,47,261,71.85,71.85,0,0,1,21.6,243.53,77.82,77.82,0,0,1,5.56,217,95.45,95.45,0,0,1,0,183.8a172.76,172.76,0,0,1,14.07-67.61,201.23,201.23,0,0,1,38.09-59,189.47,189.47,0,0,1,56.08-41.57A152.36,152.36,0,0,1,176.29,0a107.07,107.07,0,0,1,25.19,3.15,111.13,111.13,0,0,1,23.63,8.57q-4.68,18.59-8.59,37.19T209.09,86.1Z"/><path class="cls-1" d="M509.53,112.22a160,160,0,0,0-7,15.88q-4.29,10.85-9.35,24.4t-10.12,27.69q-5.07,14.16-9.35,26.35t-6.82,20.72q-2.55,8.52-2.54,10.46a8.56,8.56,0,0,0,5.41,8.34,24.79,24.79,0,0,0,10.46,2.54,21.45,21.45,0,0,0,11.25-3.27,83.31,83.31,0,0,0,10.09-7.16q4.65-3.85,8.15-7.15t5.43-3.29c1.55,0,2.33.53,2.32,1.56q0,1.16-5.24,7a92.3,92.3,0,0,1-14,12.19,109.45,109.45,0,0,1-20,11.4,56.41,56.41,0,0,1-23.26,5,31.82,31.82,0,0,1-14.72-4.1c-5.17-2.73-7.74-6.92-7.73-12.61q0-3.49,2.34-9.49t5.45-12.2q3.11-6.19,6.22-12.2t4.67-9.49l-.78-.78a175.89,175.89,0,0,1-14.56,19.17,182.65,182.65,0,0,1-20,19.92,121.27,121.27,0,0,1-22.7,15.46q-11.83,6.18-22.69,6.17a19.86,19.86,0,0,1-11-2.93,23,23,0,0,1-7.16-7.38,31.73,31.73,0,0,1-3.85-10.08,54.08,54.08,0,0,1-1.14-11.05,74.45,74.45,0,0,1,6.25-29.06,145.4,145.4,0,0,1,16.13-28.46A183.22,183.22,0,0,1,392.22,150a234.37,234.37,0,0,1,25-20.89A143.64,143.64,0,0,1,441.12,115q11.43-5.2,19.19-5.19a16.72,16.72,0,0,1,11.43,4.28,22.74,22.74,0,0,1,6.76,10.48A82.18,82.18,0,0,0,484,112.18Zm-132,117.59a15,15,0,0,0,5,11.84,17.52,17.52,0,0,0,12,4.47A32.1,32.1,0,0,0,412,240.73a86,86,0,0,0,16.11-13.35,112.05,112.05,0,0,0,13.4-17,125.64,125.64,0,0,0,8.94-16.06q1.17-3.1,4.48-10.07t6.42-14.53q3.11-7.55,5.65-14.14c1.68-4.38,2.53-7.22,2.53-8.52a14.8,14.8,0,0,0-2.89-8.73,31.87,31.87,0,0,0-7.16-7.18,36.47,36.47,0,0,0-9.1-4.86,26.21,26.21,0,0,0-8.72-1.76,37.71,37.71,0,0,0-8.33.76,15.12,15.12,0,0,0-5.63,2.51,20.2,20.2,0,0,0-4.27,4.45c-1.3,1.81-3,4-5.05,6.58q-6.61,9.3-13.8,20.13a219.11,219.11,0,0,0-13.21,22.85,166.44,166.44,0,0,0-9.93,24.2A78.73,78.73,0,0,0,377.54,229.81Z"/><path class="cls-1" d="M683.27,145.86a88.12,88.12,0,0,1-4.5,26.73,132.32,132.32,0,0,1-12.46,27.31,165.09,165.09,0,0,1-18.45,25.16,147.12,147.12,0,0,1-22.52,20.7,112.31,112.31,0,0,1-25,14.1,67.85,67.85,0,0,1-25.4,5.19q-10.08,0-16.47-2.74a26.62,26.62,0,0,1-10.26-7.39A25.22,25.22,0,0,1,543,243.67a71.5,71.5,0,0,1-1.33-14.34,75.8,75.8,0,0,1,5.28-26.73,139.83,139.83,0,0,1,14-27.31,176.39,176.39,0,0,1,20-25.15,180.5,180.5,0,0,1,23.29-20.7,122.4,122.4,0,0,1,24.06-14.1q12-5.22,21.71-5.2,10.08,0,16.47,2.75a26.5,26.5,0,0,1,10.26,7.38,25.22,25.22,0,0,1,5.21,11.25A71.5,71.5,0,0,1,683.27,145.86Zm-51.9-23.35q-8.91,0-16.87,6.37a68.69,68.69,0,0,0-14.56,16.64,134.74,134.74,0,0,0-11.67,22.85q-5.07,12.58-8.76,25a219,219,0,0,0-5.67,23.05,100.68,100.68,0,0,0-2,17.25q0,22.08,21.66,22.13,8.91,0,16.87-6.37A68.72,68.72,0,0,0,625,232.77a134.7,134.7,0,0,0,11.66-22.85q5.07-12.57,8.77-25a220.06,220.06,0,0,0,5.66-23.05,100.65,100.65,0,0,0,2-17.25Q653.09,122.55,631.37,122.51Z"/><path class="cls-1" d="M723.09,201.36a199.48,199.48,0,0,1,8.42-48.83q7.22-23.61,15.78-47.25t16.17-47.46a232.07,232.07,0,0,0,10-49l33.34.06a127.77,127.77,0,0,1-7,34.29,242.46,242.46,0,0,1-14,32q-8.18,15.49-17.3,30.4t-17.5,30.39a332.7,332.7,0,0,0-15,31.57,135.22,135.22,0,0,0-9,33.89Zm-3.51,11.23A17.15,17.15,0,0,1,732.75,218q5,5.44,5,14.74a31.15,31.15,0,0,1-6.43,19.56,20.58,20.58,0,0,1-17.26,8.3,17.14,17.14,0,0,1-13.17-5.45q-5-5.43-5-14.73a31.32,31.32,0,0,1,6.43-19.57A20.63,20.63,0,0,1,719.58,212.59Z"/><path class="cls-1" d="M327.45,2.59q8.52,0,13.17,3.91c3.09,2.58,4.64,6.85,4.62,12.79a22.25,22.25,0,0,1-5.45,14.91q-5.44,6.39-13.19,6.38-8.52,0-13.17-3.9t-4.63-12.8A22.33,22.33,0,0,1,314.26,9,16.66,16.66,0,0,1,327.45,2.59Zm-15.7,107a263,263,0,0,1-10.51,28.28q-7.41,17.43-14.8,35.83t-13,34.86q-5.65,16.45-5.67,25.37a10.72,10.72,0,0,0,5.22,9.31,18.89,18.89,0,0,0,10.65,3.51,26.81,26.81,0,0,0,14.55-4.24A83.34,83.34,0,0,0,310.57,233q5.63-5.22,9.7-9.48c2.72-2.83,4.59-4.25,5.63-4.25,1.29,0,1.94.78,1.93,2.33q0,1.93-6,8.9A121.22,121.22,0,0,1,306.48,245a128.78,128.78,0,0,1-20.57,13.53q-11.27,6-21.72,6a37.37,37.37,0,0,1-9.68-1.38,32.56,32.56,0,0,1-9.49-4.28,23.46,23.46,0,0,1-7.16-7.18,17.65,17.65,0,0,1-2.7-9.69q0-2.72,3.71-13t9.93-27.31q6.22-17,14.8-40.28t18.31-51.91Z"/><path class="cls-1" d="M304,315.15a11.41,11.41,0,0,0,.15,1.93,2,2,0,0,0,.52,1.1,2.38,2.38,0,0,0,1.13.61c.5.14,1.17.29,2,.45v.37c-.89,0-1.77-.06-2.63-.07s-1.75,0-2.64,0-1.52,0-2.27.05-1.51.06-2.28.11v-.37a6.48,6.48,0,0,0,1.75-.36,2,2,0,0,0,1-.78,3.21,3.21,0,0,0,.42-1.38,19.25,19.25,0,0,0,.07-2.15l-.08-10.35c0-.86-.05-1.58-.11-2.15a3.21,3.21,0,0,0-.45-1.37,2,2,0,0,0-1-.77,6.3,6.3,0,0,0-1.75-.32v-.38l1.15.06q.72,0,1.47,0c.51,0,1,0,1.46,0h1.13l6.72-.05c1,0,2,0,2.78-.07l2.54-.1c0,.44-.07.86-.08,1.29s0,.84,0,1.25,0,1.07,0,1.6.06,1.05.11,1.59h-.5a7.42,7.42,0,0,0-1.31-2.72,4.62,4.62,0,0,0-1.87-1.41,7.48,7.48,0,0,0-2.43-.53q-1.37-.08-3-.06c-.35,0-.7,0-1.06,0s-.72,0-1.11,0l.06,7.67,2.48,0a4.67,4.67,0,0,0,2.87-.79,5.33,5.33,0,0,0,1.63-2.56h.37c-.06,1.4-.07,2.81-.06,4.21,0,.74,0,1.43,0,2.06s0,1.31.09,2H311a13.28,13.28,0,0,0-.66-1.9,3.85,3.85,0,0,0-.83-1.21,2.85,2.85,0,0,0-1.17-.67,8.35,8.35,0,0,0-1.68-.3l-.58,0H304Z"/><path class="cls-1" d="M330.39,319.05a6.23,6.23,0,0,0,1.73-.36,1.92,1.92,0,0,0,.94-.78,3.22,3.22,0,0,0,.39-1.38c.05-.57.07-1.29.06-2.15L333.43,304c0-.87-.05-1.59-.1-2.15a3.08,3.08,0,0,0-.42-1.38,1.88,1.88,0,0,0-1-.77,6.86,6.86,0,0,0-1.76-.32v-.37c.87,0,1.71.06,2.53.07h2.52c.68,0,1.36,0,2-.05s1.36-.06,2-.11v.37a6.15,6.15,0,0,0-1.7.36,1.83,1.83,0,0,0-.92.78,3.23,3.23,0,0,0-.38,1.38c0,.57-.07,1.29-.06,2.15l.09,10.34c0,.87,0,1.59.09,2.16a3.21,3.21,0,0,0,.42,1.37,1.85,1.85,0,0,0,1,.76,6.51,6.51,0,0,0,1.8.33v.37c-.78,0-1.57-.06-2.35-.07s-1.57,0-2.36,0-1.52,0-2.26.05-1.48.06-2.23.11Z"/><path class="cls-1" d="M353.69,309a10.48,10.48,0,0,1,.87-4.5,10.26,10.26,0,0,1,2.43-3.38,10.83,10.83,0,0,1,3.62-2.13,13.9,13.9,0,0,1,8.89-.08,10.81,10.81,0,0,1,3.66,2.08,10.19,10.19,0,0,1,2.49,3.34,11.47,11.47,0,0,1,.07,9,10.26,10.26,0,0,1-2.43,3.38,10.9,10.9,0,0,1-3.62,2.13,13.27,13.27,0,0,1-4.44.76,13.09,13.09,0,0,1-4.45-.69,10.58,10.58,0,0,1-3.65-2.07,10.05,10.05,0,0,1-2.49-3.34A10.52,10.52,0,0,1,353.69,309Zm3.28,0a11.82,11.82,0,0,0,.58,3.62,9.62,9.62,0,0,0,1.64,3,7.86,7.86,0,0,0,2.59,2.09,7.86,7.86,0,0,0,6.87-.06,7.73,7.73,0,0,0,2.55-2.13,9.28,9.28,0,0,0,1.59-3.06,11.86,11.86,0,0,0,.53-3.63,12.08,12.08,0,0,0-.59-3.61,9.37,9.37,0,0,0-1.64-3,7.84,7.84,0,0,0-2.59-2.08,7.86,7.86,0,0,0-6.87.06,7.83,7.83,0,0,0-2.55,2.12,9.47,9.47,0,0,0-1.59,3.06A11.85,11.85,0,0,0,357,309Z"/><path class="cls-1" d="M412.53,318.61l-5.58.05q-2-2.13-3.64-4.35a36.71,36.71,0,0,1-3-4.73,6.42,6.42,0,0,1-.78-.06l-1-.13-1-.17c-.32-.07-.58-.14-.79-.2l0,4.83c0,.87,0,1.59.09,2.15a3.12,3.12,0,0,0,.42,1.37,1.91,1.91,0,0,0,1,.77,7,7,0,0,0,1.8.33v.37c-.78,0-1.57-.06-2.35-.07s-1.57,0-2.35,0-1.52,0-2.26.06-1.49.06-2.23.11v-.38a6.2,6.2,0,0,0,1.73-.35,1.87,1.87,0,0,0,.94-.78,3.13,3.13,0,0,0,.39-1.38c.05-.57.07-1.29.06-2.15l-.08-10.35c0-.86,0-1.58-.1-2.15a3.17,3.17,0,0,0-.41-1.37,1.9,1.9,0,0,0-1-.77,6.38,6.38,0,0,0-1.73-.33v-.37c.66,0,1.32.06,2,.08s1.32,0,2,0c.29,0,.65,0,1.08-.05l1.38-.12q.72-.07,1.47-.12c.5,0,.94-.06,1.33-.06a11.29,11.29,0,0,1,2.73.32,7.88,7.88,0,0,1,2.52,1.06,6.12,6.12,0,0,1,1.84,1.88,5,5,0,0,1,.73,2.71,4.45,4.45,0,0,1-.37,1.92,4.62,4.62,0,0,1-1,1.47,5.34,5.34,0,0,1-1.53,1,7.87,7.87,0,0,1-1.83.61c.29.49.63,1.05,1,1.66s.84,1.24,1.33,1.88,1,1.27,1.57,1.89a14.54,14.54,0,0,0,1.74,1.69,10.83,10.83,0,0,0,1.89,1.25,5.1,5.1,0,0,0,1.95.59ZM396.74,308a8.09,8.09,0,0,0,2.88.5,5.66,5.66,0,0,0,3.74-1.15,4.45,4.45,0,0,0,1.3-3.63,4.2,4.2,0,0,0-1.48-3.25,4.85,4.85,0,0,0-1.57-.92,5.49,5.49,0,0,0-1.85-.31c-.51,0-1,0-1.51.08a7.24,7.24,0,0,0-1.46.28c0,1-.05,2-.06,3s0,2.1,0,3.28Z"/><path class="cls-1" d="M432.59,317.24a6.47,6.47,0,0,0,.68.11c.27,0,.56.08.87.12l1,.1c.33,0,.64,0,.93,0a15.7,15.7,0,0,0,3.32-.34,9.42,9.42,0,0,0,2.69-1,11.06,11.06,0,0,0,2.29-1.75,21.78,21.78,0,0,0,2.18-2.56l.34.28-2.76,6.24c-.36,0-.72-.06-1.09-.08s-.73,0-1.08,0l-11.64.09c-.6,0-1.2,0-1.8.05s-1.2.06-1.79.11v-.37a6.15,6.15,0,0,0,1.73-.36,1.79,1.79,0,0,0,.92-.78,3.23,3.23,0,0,0,.38-1.38c.05-.57.07-1.29.06-2.15l-.08-10.35c0-.86-.05-1.58-.1-2.15a3.36,3.36,0,0,0-.4-1.37,1.87,1.87,0,0,0-1-.77,6.62,6.62,0,0,0-1.77-.32v-.37l2,0q.94,0,1.95,0h2.14l2.55,0,4.34-.07c1.44,0,2.91-.07,4.39-.13,0,.23,0,.45,0,.68s0,.45,0,.65v1.24c0,.46,0,.91.08,1.38s.09,1,.13,1.53l-.4.13a7.61,7.61,0,0,0-1.09-2.43,5.08,5.08,0,0,0-1.56-1.45,5.56,5.56,0,0,0-1.94-.7,12.26,12.26,0,0,0-2.23-.16c-1.44,0-2.89.08-4.33.22l.06,7.74,1.19,0c.39,0,.78,0,1.2-.05a5.89,5.89,0,0,0,3.38-.88,4.16,4.16,0,0,0,1.51-3.12h.37c0,.74,0,1.48,0,2.23s0,1.47,0,2.2,0,1.48.05,2.23.05,1.48.05,2.23h-.37a9.38,9.38,0,0,0-.7-2.12,3.19,3.19,0,0,0-1-1.24,3.49,3.49,0,0,0-1.5-.58,13.29,13.29,0,0,0-2.14-.14l-2,0Z"/><path class="cls-1" d="M494.28,303.56a11.64,11.64,0,0,0-1.06-1.95,8.79,8.79,0,0,0-1.48-1.73,7.1,7.1,0,0,0-1.87-1.2,5.17,5.17,0,0,0-2.23-.45,5.85,5.85,0,0,0-2.89.67,2.47,2.47,0,0,0-1.11,2.34,2.89,2.89,0,0,0,.52,1.71,5.17,5.17,0,0,0,1.38,1.28,12.54,12.54,0,0,0,1.94,1l2.22.92q1.14.48,2.22,1a9,9,0,0,1,1.95,1.32,6.27,6.27,0,0,1,1.38,1.78,5.57,5.57,0,0,1,.53,2.45,5.66,5.66,0,0,1-.54,2.62,5.17,5.17,0,0,1-1.48,1.82,6.39,6.39,0,0,1-2.19,1.07,9.7,9.7,0,0,1-2.68.36,8.25,8.25,0,0,1-1.61-.13c-.56-.09-1.1-.19-1.61-.3l-1.41-.31a5.29,5.29,0,0,0-1-.14,1.78,1.78,0,0,0-.65.12l-.65.24c-.19-1.18-.42-2.32-.68-3.44s-.52-2.26-.8-3.43l.4-.22a22.38,22.38,0,0,0,1.36,2.24,14.28,14.28,0,0,0,1.8,2.13,10.06,10.06,0,0,0,2.2,1.6,5.36,5.36,0,0,0,2.59.62,7,7,0,0,0,1.73-.21,4.48,4.48,0,0,0,1.47-.65,3.16,3.16,0,0,0,1-1.14,3.55,3.55,0,0,0,.35-1.71,3.42,3.42,0,0,0-.92-2.42,8.27,8.27,0,0,0-2.24-1.68,25.09,25.09,0,0,0-2.9-1.32,23.07,23.07,0,0,1-2.91-1.37,8.48,8.48,0,0,1-2.25-1.81,4,4,0,0,1-.92-2.65,5.16,5.16,0,0,1,.45-2.2,5,5,0,0,1,1.24-1.69,5.46,5.46,0,0,1,1.82-1.08,6.19,6.19,0,0,1,2.21-.39,13,13,0,0,1,2.06.13c.61.1,1.2.21,1.78.33l1.77.34a10,10,0,0,0,1.86.16c0,.92,0,1.83.07,2.71s.11,1.75.22,2.64Z"/><path class="cls-1" d="M516.4,316.54l.69.12.86.11c.31,0,.63.08,1,.1a7.63,7.63,0,0,0,.93,0,15.87,15.87,0,0,0,3.33-.34,9.36,9.36,0,0,0,2.68-1,10.77,10.77,0,0,0,2.3-1.75,21.77,21.77,0,0,0,2.17-2.56l.35.28-2.77,6.24-1.08-.08c-.38,0-.74,0-1.09,0l-11.64.1c-.6,0-1.2,0-1.79,0s-1.2.06-1.8.11v-.37a6.23,6.23,0,0,0,1.73-.36,1.83,1.83,0,0,0,.92-.78,3.38,3.38,0,0,0,.38-1.38c0-.57.06-1.29.06-2.15l-.09-10.34c0-.87,0-1.59-.1-2.16A3.22,3.22,0,0,0,513,299a1.79,1.79,0,0,0-1-.76,6.13,6.13,0,0,0-1.77-.33v-.37l2,0q.94,0,2,0h2.13l2.56,0c1.44,0,2.89,0,4.33-.07s2.91-.07,4.4-.13c0,.23,0,.46,0,.69s0,.44,0,.65V300a12.75,12.75,0,0,0,.07,1.38c.05.46.09,1,.14,1.53l-.41.13a7.45,7.45,0,0,0-1.08-2.42,5.12,5.12,0,0,0-1.56-1.46,5.61,5.61,0,0,0-2-.7,13.18,13.18,0,0,0-2.22-.16c-1.45,0-2.89.08-4.34.22l.07,7.74,1.19,0c.38,0,.78,0,1.19,0a6.05,6.05,0,0,0,3.38-.88,4.17,4.17,0,0,0,1.51-3.13H524c0,.74,0,1.49,0,2.23s0,1.47,0,2.2,0,1.48,0,2.23,0,1.48.06,2.23h-.38a9.41,9.41,0,0,0-.69-2.12,3.37,3.37,0,0,0-1-1.24,3.59,3.59,0,0,0-1.51-.58,14.56,14.56,0,0,0-2.14-.14l-2,0Z"/><path class="cls-1" d="M553.59,297.56a14.1,14.1,0,0,0-2.32.51,2.87,2.87,0,0,0-1.21.71,1.88,1.88,0,0,0-.47,1.06,10.07,10.07,0,0,0-.08,1.56l.12,14.86,1.63.27a12.43,12.43,0,0,0,4.78-.29,8,8,0,0,0,2.44-1.14,9.71,9.71,0,0,0,2-1.88,26.22,26.22,0,0,0,1.82-2.67h.46l-2.32,6.95c-.75,0-1.5-.06-2.25-.07s-1.5,0-2.24,0l-9.11.07c-.51,0-1,0-1.54.05s-1,.06-1.55.1v-.37a6.88,6.88,0,0,0,1.62-.32,2.71,2.71,0,0,0,.94-.55,1.59,1.59,0,0,0,.44-.79,5.12,5.12,0,0,0,.1-1.09l-.1-12.26c0-.87,0-1.58-.1-2.15a3.13,3.13,0,0,0-.4-1.37,1.78,1.78,0,0,0-.93-.77,6.55,6.55,0,0,0-1.74-.33v-.37c.8,0,1.6.06,2.4.07s1.59,0,2.4,0,1.74,0,2.61-.05,1.75-.06,2.62-.11Z"/><path class="cls-1" d="M582,316l.68.12.87.12,1,.1c.33,0,.64,0,.93,0a16.57,16.57,0,0,0,3.33-.34,10.11,10.11,0,0,0,2.68-1,11.11,11.11,0,0,0,2.29-1.76,20.73,20.73,0,0,0,2.18-2.55l.34.27-2.76,6.25c-.35,0-.71-.07-1.09-.08l-1.08,0-11.64.1c-.6,0-1.2,0-1.8,0s-1.2.06-1.79.1V317a6,6,0,0,0,1.73-.36,1.74,1.74,0,0,0,.92-.78,3.22,3.22,0,0,0,.37-1.37q.07-.86.06-2.16L579.06,302c0-.87,0-1.58-.1-2.15a3.27,3.27,0,0,0-.4-1.37,1.82,1.82,0,0,0-1-.77,7,7,0,0,0-1.77-.33V297l2,.05,2,0h2.13l2.55,0c1.45,0,2.89,0,4.34-.06s2.91-.08,4.4-.14a5.43,5.43,0,0,0,0,.69c0,.23,0,.44,0,.65v1.24c0,.45,0,.91.08,1.37s.09,1,.14,1.54l-.41.12a7.65,7.65,0,0,0-1.09-2.42,5.13,5.13,0,0,0-1.56-1.46,5.76,5.76,0,0,0-1.94-.69,12.23,12.23,0,0,0-2.23-.17c-1.44,0-2.89.09-4.33.22l.06,7.74c.42,0,.81,0,1.2,0s.77,0,1.19,0a5.89,5.89,0,0,0,3.38-.88,4.16,4.16,0,0,0,1.51-3.12h.37c0,.75,0,1.49,0,2.23s0,1.48,0,2.2,0,1.49,0,2.23.05,1.49.05,2.23h-.37a9.21,9.21,0,0,0-.7-2.12,3.29,3.29,0,0,0-1-1.25,3.46,3.46,0,0,0-1.51-.57,12.24,12.24,0,0,0-2.14-.14h-2Z"/><path class="cls-1" d="M628.17,303.62a12.17,12.17,0,0,0-1.09-2.55,8.78,8.78,0,0,0-1.59-2,6.85,6.85,0,0,0-2.12-1.33,7.15,7.15,0,0,0-2.68-.45,6.64,6.64,0,0,0-3.25.77,6.27,6.27,0,0,0-2.16,2,8.58,8.58,0,0,0-1.22,2.95,15,15,0,0,0-.35,3.53,12.12,12.12,0,0,0,.52,3.54,8.83,8.83,0,0,0,1.5,2.95,7.12,7.12,0,0,0,2.46,2,7.25,7.25,0,0,0,3.39.72,8.44,8.44,0,0,0,5-1.49,13.78,13.78,0,0,0,3.67-4l.78.61a27.18,27.18,0,0,1-2.08,2.8,11.88,11.88,0,0,1-2.28,2.06A9.65,9.65,0,0,1,624,317a11.75,11.75,0,0,1-3.28.46,9.92,9.92,0,0,1-3.94-.76,10.21,10.21,0,0,1-3.27-2.17,10.57,10.57,0,0,1-2.24-3.36,11.86,11.86,0,0,1-.07-8.64,10.32,10.32,0,0,1,2.19-3.39,10.07,10.07,0,0,1,7.15-3,16,16,0,0,1,2.14.11l1.91.28,1.76.3A12.41,12.41,0,0,0,628,297c0,.43,0,.94.06,1.52s.09,1.17.16,1.78.13,1.2.2,1.79.13,1.1.2,1.53Z"/><path class="cls-1" d="M648.47,316.4a6.23,6.23,0,0,0,1.73-.36,1.92,1.92,0,0,0,.94-.78,3.22,3.22,0,0,0,.39-1.38c.05-.57.07-1.28.06-2.15l-.12-14.37a25,25,0,0,0-2.74.15,4.06,4.06,0,0,0-3.29,2.22,15.28,15.28,0,0,0-1.17,2.89l-.4-.11.38-6.08c.87,0,1.72.06,2.57.07s1.7,0,2.57,0l7.28-.06c.82,0,1.64,0,2.44-.05s1.62-.06,2.45-.11l.48,6.06-.4.13a15.83,15.83,0,0,0-1.21-2.87,4.33,4.33,0,0,0-1.43-1.55,4.44,4.44,0,0,0-1.94-.62,25.24,25.24,0,0,0-2.8-.1l.12,14.37c0,.86,0,1.58.09,2.15a3.21,3.21,0,0,0,.42,1.37,1.85,1.85,0,0,0,1,.76,6.22,6.22,0,0,0,1.8.33v.37c-.78,0-1.57-.06-2.35-.07s-1.57,0-2.36,0-1.51,0-2.25.05-1.49.06-2.24.11Z"/><path class="cls-1" d="M677,316.16a5.89,5.89,0,0,0,1.73-.36,1.86,1.86,0,0,0,.94-.78,3.22,3.22,0,0,0,.39-1.38c0-.56.06-1.28.06-2.15L680,301.15c0-.87,0-1.58-.09-2.15a3.21,3.21,0,0,0-.42-1.38,1.9,1.9,0,0,0-1-.76,6.9,6.9,0,0,0-1.77-.33v-.37c.87,0,1.71.06,2.52.07s1.66,0,2.53,0c.68,0,1.36,0,2-.05s1.35-.06,2-.11v.38a5.92,5.92,0,0,0-1.7.35,1.87,1.87,0,0,0-.92.78,3.32,3.32,0,0,0-.37,1.38q-.08.86-.06,2.16l.08,10.34c0,.87,0,1.58.1,2.15a3,3,0,0,0,.41,1.37,1.89,1.89,0,0,0,1,.77,6.55,6.55,0,0,0,1.79.32v.38c-.79,0-1.57-.06-2.36-.08s-1.57,0-2.35,0-1.52,0-2.26.05-1.49.06-2.23.11Z"/><path class="cls-1" d="M700.27,306.15a10.59,10.59,0,0,1,.88-4.49,10.06,10.06,0,0,1,2.43-3.39,10.9,10.9,0,0,1,3.62-2.13,14.08,14.08,0,0,1,8.89-.08,10.86,10.86,0,0,1,3.65,2.08,10.05,10.05,0,0,1,2.49,3.34,11.53,11.53,0,0,1,.08,9,10.15,10.15,0,0,1-2.44,3.38,10.48,10.48,0,0,1-3.62,2.13,13.22,13.22,0,0,1-4.43.77,13.56,13.56,0,0,1-4.45-.69,10.81,10.81,0,0,1-3.66-2.08,10.11,10.11,0,0,1-2.49-3.33A10.76,10.76,0,0,1,700.27,306.15Zm3.28,0a11.78,11.78,0,0,0,.59,3.62,9.47,9.47,0,0,0,1.64,3,7.93,7.93,0,0,0,2.58,2.08,7.35,7.35,0,0,0,3.45.76,7.27,7.27,0,0,0,3.43-.82,8,8,0,0,0,2.55-2.12,9.5,9.5,0,0,0,1.58-3.07,12,12,0,0,0-.06-7.24,9.4,9.4,0,0,0-1.63-3,7.86,7.86,0,0,0-2.59-2.09,7.86,7.86,0,0,0-6.87.06,7.83,7.83,0,0,0-2.55,2.12,9.43,9.43,0,0,0-1.59,3.07A11.79,11.79,0,0,0,703.55,306.12Z"/><path class="cls-1" d="M736.33,295.66c.73,0,1.41.07,2.06.08s1.41,0,2.28,0c.45,0,.9,0,1.33,0s.88-.06,1.33-.11q.4.56,1.35,1.68l2.14,2.57c.8,1,1.66,2,2.58,3.07s1.8,2.15,2.66,3.19,1.64,2,2.36,2.89,1.29,1.62,1.7,2.2h.07c0-.62,0-1.24,0-1.84v-1.85l0-3.59c0-1.32-.07-2.47-.17-3.45a8.4,8.4,0,0,0-.58-2.45,3.32,3.32,0,0,0-1.19-1.51,4,4,0,0,0-2-.61v-.37c.72,0,1.45.06,2.18.08s1.46,0,2.18,0,1.33,0,2-.05,1.35-.06,2-.11v.38a4,4,0,0,0-2.67,1.15,4.18,4.18,0,0,0-.7,2.71l.13,16.41h-1.14c-1.15-1.76-2.37-3.48-3.65-5.14s-2.56-3.24-3.82-4.74-2.48-2.88-3.66-4.16-2.23-2.42-3.17-3.43c0,.54,0,1.07,0,1.58s0,1,0,1.58l0,5.42c0,1.84.06,3.29.15,4.35a6.85,6.85,0,0,0,.54,2.44,2.13,2.13,0,0,0,1.25,1.13,10,10,0,0,0,2.28.44V316c-1,0-2.07-.06-3.06-.07s-2,0-3.07,0c-.6,0-1.19,0-1.76.05s-1.17.06-1.77.11v-.37c.7-.11,1.31-.21,1.84-.32a3.43,3.43,0,0,0,1.3-.47,2,2,0,0,0,.76-.93,4.45,4.45,0,0,0,.28-1.69l.26-14.22a8.17,8.17,0,0,0-2.18-1.25,20.51,20.51,0,0,0-2.42-.75Z"/></g></g></svg>