<svg xmlns="http://www.w3.org/2000/svg" viewBox="0 0 806.81 319.7"><defs><style>.cls-1{fill:#fff;}</style></defs><title>logo-white</title><g id="レイヤー_2" data-name="レイヤー 2"><g id="レイヤー_1-2" data-name="レイヤー 1"><g id="レイヤー_2-2" data-name="レイヤー 2"><g id="レイヤー_1-2-2" data-name="レイヤー 1-2"><path class="cls-1" d="M205.22,86.1A218.45,218.45,0,0,0,202,59a80.53,80.53,0,0,0-8.48-24.43A50.53,50.53,0,0,0,177.47,16.9q-10.11-6.82-26-6.9a69.85,69.85,0,0,0-33,8.09A107.18,107.18,0,0,0,90.19,39.77a159.15,159.15,0,0,0-22.73,31,238.05,238.05,0,0,0-16.73,36,252,252,0,0,0-10.53,36.8,169,169,0,0,0-3.75,33.32,112.56,112.56,0,0,0,3.25,27.72A68.13,68.13,0,0,0,49.93,227.5,47.86,47.86,0,0,0,68.32,243q11.4,5.64,27.7,5.66a76.79,76.79,0,0,0,31.79-6.53,118.13,118.13,0,0,0,27.36-17,166,166,0,0,0,23.1-23.41,310.32,310.32,0,0,0,19-26.13l5,3.5A169.48,169.48,0,0,1,181,210.67a196.27,196.27,0,0,1-29.32,28.24,155.88,155.88,0,0,1-34.53,20.48,92.48,92.48,0,0,1-37,7.88A85.54,85.54,0,0,1,47,261a71.77,71.77,0,0,1-25.4-17.47A77.66,77.66,0,0,1,5.57,217,95.3,95.3,0,0,1,0,183.8a172.61,172.61,0,0,1,14.07-67.61,201.23,201.23,0,0,1,38.09-59,189.45,189.45,0,0,1,56.08-41.57A152.39,152.39,0,0,1,176.3,0a107.55,107.55,0,0,1,25.19,3.15,111.7,111.7,0,0,1,23.63,8.57q-4.68,18.6-8.59,37.19T209.1,86.1Z"/><path class="cls-1" d="M509.54,112.22a160.1,160.1,0,0,0-7,15.88q-4.29,10.86-9.35,24.4t-10.12,27.69q-5.07,14.16-9.35,26.35t-6.82,20.72q-2.55,8.52-2.54,10.46a8.56,8.56,0,0,0,5.41,8.34,24.79,24.79,0,0,0,10.46,2.54,21.36,21.36,0,0,0,11.25-3.27,83.4,83.4,0,0,0,10.09-7.16q4.65-3.84,8.15-7.15c2.33-2.2,4.14-3.29,5.43-3.29,1.55,0,2.33.53,2.32,1.56q0,1.17-5.24,7a92.25,92.25,0,0,1-14,12.19,109.61,109.61,0,0,1-20,11.4,56.37,56.37,0,0,1-23.26,5,31.82,31.82,0,0,1-14.72-4.1c-5.17-2.73-7.74-6.92-7.73-12.61,0-2.32.78-5.49,2.34-9.49s3.37-8.06,5.45-12.2,4.14-8.19,6.22-12.2,3.63-7.17,4.67-9.49l-.78-.78a176.12,176.12,0,0,1-14.56,19.17,182.61,182.61,0,0,1-20,19.92,121.11,121.11,0,0,1-22.7,15.46q-11.84,6.18-22.69,6.17a19.81,19.81,0,0,1-11-2.93,22.94,22.94,0,0,1-7.16-7.38,31.43,31.43,0,0,1-3.85-10.08,53.9,53.9,0,0,1-1.14-11.05,74.22,74.22,0,0,1,6.25-29.06,145.56,145.56,0,0,1,16.13-28.46A183.46,183.46,0,0,1,392.23,150a234.45,234.45,0,0,1,25-20.89A143.47,143.47,0,0,1,441.13,115q11.43-5.19,19.19-5.19a16.79,16.79,0,0,1,11.43,4.28,22.9,22.9,0,0,1,6.76,10.48,82.11,82.11,0,0,0,5.5-12.39Zm-132,117.59a15,15,0,0,0,5,11.84,17.51,17.51,0,0,0,12,4.47A32.09,32.09,0,0,0,412,240.73a86.26,86.26,0,0,0,16.11-13.35,112.25,112.25,0,0,0,13.4-17,127.16,127.16,0,0,0,8.94-16.06q1.17-3.09,4.48-10.07t6.42-14.53q3.11-7.54,5.65-14.14c1.68-4.38,2.53-7.22,2.53-8.52a14.9,14.9,0,0,0-2.89-8.73,32.09,32.09,0,0,0-7.16-7.18,36.73,36.73,0,0,0-9.1-4.86,26.36,26.36,0,0,0-8.72-1.76,38.17,38.17,0,0,0-8.33.76,15.13,15.13,0,0,0-5.63,2.51,20,20,0,0,0-4.27,4.45c-1.3,1.81-3,4-5.05,6.58q-6.61,9.3-13.8,20.13a219.94,219.94,0,0,0-13.21,22.85,166.92,166.92,0,0,0-9.93,24.2,78.62,78.62,0,0,0-3.9,23.8Z"/><path class="cls-1" d="M683.28,145.86a88.31,88.31,0,0,1-4.5,26.73,132.83,132.83,0,0,1-12.46,27.31,165.41,165.41,0,0,1-18.45,25.16,147.26,147.26,0,0,1-22.52,20.7,112.38,112.38,0,0,1-25,14.1,67.78,67.78,0,0,1-25.4,5.19q-10.08,0-16.47-2.74a26.5,26.5,0,0,1-10.26-7.39A25.12,25.12,0,0,1,543,243.67a71.15,71.15,0,0,1-1.33-14.34A75.81,75.81,0,0,1,547,202.6a139.43,139.43,0,0,1,14-27.31,176.1,176.1,0,0,1,20-25.15,180.26,180.26,0,0,1,23.29-20.7,122.39,122.39,0,0,1,24.06-14.1q12-5.22,21.71-5.2,10.08,0,16.47,2.75a26.63,26.63,0,0,1,10.26,7.38A25.39,25.39,0,0,1,682,131.52,71.94,71.94,0,0,1,683.28,145.86Zm-51.9-23.35q-8.91,0-16.87,6.37A68.86,68.86,0,0,0,600,145.52a134.37,134.37,0,0,0-11.67,22.85q-5.07,12.58-8.76,25a217.68,217.68,0,0,0-5.67,23,99.13,99.13,0,0,0-2,17.25q0,22.08,21.66,22.13,8.91,0,16.87-6.37A68.89,68.89,0,0,0,625,232.77a135.05,135.05,0,0,0,11.66-22.85q5.07-12.57,8.77-25a219.49,219.49,0,0,0,5.66-23,101,101,0,0,0,2-17.25Q653.1,122.56,631.38,122.51Z"/><path class="cls-1" d="M723.1,201.36a199,199,0,0,1,8.42-48.83q7.22-23.61,15.78-47.25t16.17-47.46a232.58,232.58,0,0,0,10-49l33.34.06a127.92,127.92,0,0,1-7,34.29,243.2,243.2,0,0,1-14,32q-8.19,15.49-17.3,30.4T751,136a332.45,332.45,0,0,0-15,31.57,134.89,134.89,0,0,0-9,33.89Zm-3.51,11.23A17.18,17.18,0,0,1,732.76,218q5,5.44,5,14.74a31.23,31.23,0,0,1-6.43,19.56,20.6,20.6,0,0,1-17.26,8.3,17.14,17.14,0,0,1-13.17-5.45q-5-5.43-5-14.73a31.28,31.28,0,0,1,6.43-19.57A20.65,20.65,0,0,1,719.59,212.59Z"/><path class="cls-1" d="M327.46,2.59q8.52,0,13.17,3.91c3.09,2.58,4.64,6.85,4.62,12.79A22.33,22.33,0,0,1,339.8,34.2q-5.44,6.39-13.19,6.38-8.52,0-13.17-3.9t-4.63-12.8A22.34,22.34,0,0,1,314.27,9,16.64,16.64,0,0,1,327.46,2.59Zm-15.7,107a263.66,263.66,0,0,1-10.51,28.28q-7.41,17.43-14.8,35.83t-13,34.86q-5.65,16.45-5.67,25.37a10.71,10.71,0,0,0,5.22,9.31,18.84,18.84,0,0,0,10.65,3.51,26.75,26.75,0,0,0,14.55-4.24A83.25,83.25,0,0,0,310.58,233q5.63-5.22,9.7-9.48c2.72-2.83,4.59-4.25,5.63-4.25,1.29,0,1.94.78,1.93,2.33q0,1.93-6,8.9A122.36,122.36,0,0,1,306.49,245a128.55,128.55,0,0,1-20.57,13.53q-11.28,6-21.72,6a37.23,37.23,0,0,1-9.68-1.38,32.38,32.38,0,0,1-9.49-4.28,23.25,23.25,0,0,1-7.16-7.18,17.63,17.63,0,0,1-2.7-9.69q0-2.72,3.71-13t9.93-27.31q6.21-17,14.8-40.28t18.31-51.91Z"/><path class="cls-1" d="M304,315.15a10.4,10.4,0,0,0,.15,1.93,1.92,1.92,0,0,0,.52,1.1,2.24,2.24,0,0,0,1.13.61c.5.14,1.17.29,2,.45v.37c-.89,0-1.77-.06-2.63-.07s-1.75,0-2.64,0-1.52,0-2.27,0-1.51.06-2.28.11v-.37a6.65,6.65,0,0,0,1.75-.36,2,2,0,0,0,1-.78,3.32,3.32,0,0,0,.42-1.38c.06-.71.08-1.43.07-2.15l-.08-10.35a20.48,20.48,0,0,0-.11-2.15,3.36,3.36,0,0,0-.45-1.37,2,2,0,0,0-1-.77,6.58,6.58,0,0,0-1.75-.32v-.38l1.15.06h4.06l6.72-.05c1,0,2,0,2.78-.07l2.54-.1c0,.44-.07.86-.08,1.29s0,.84,0,1.25v1.6c0,.53.06,1.05.11,1.59h-.5a7.71,7.71,0,0,0-1.31-2.72,4.71,4.71,0,0,0-1.87-1.41,7.56,7.56,0,0,0-2.43-.53q-1.38-.08-3-.06h-2.17l.06,7.67h2.48a4.67,4.67,0,0,0,2.87-.79,5.36,5.36,0,0,0,1.63-2.56h.37c-.06,1.4-.07,2.81-.06,4.21v2.06a15.33,15.33,0,0,0,.09,2H311a15.8,15.8,0,0,0-.66-1.9,4,4,0,0,0-.83-1.21,3,3,0,0,0-1.17-.67,8.84,8.84,0,0,0-1.68-.3H304Z"/><path class="cls-1" d="M330.4,319.05a6.06,6.06,0,0,0,1.73-.36,1.89,1.89,0,0,0,.94-.78,3.28,3.28,0,0,0,.39-1.38c.05-.57.07-1.29.06-2.15L333.44,304c0-.87-.05-1.59-.1-2.15a3.22,3.22,0,0,0-.42-1.38,2,2,0,0,0-1-.77,7.08,7.08,0,0,0-1.76-.32V299c.87,0,1.71.06,2.53.07h2.52c.68,0,1.36,0,2-.05s1.36-.06,2-.11v.37a6.14,6.14,0,0,0-1.7.36,1.85,1.85,0,0,0-.92.78,3.21,3.21,0,0,0-.38,1.38c0,.57-.07,1.29-.06,2.15l.09,10.34a15.07,15.07,0,0,0,.09,2.16,3,3,0,0,0,.42,1.37,1.82,1.82,0,0,0,1,.76,6.09,6.09,0,0,0,1.8.33v.37c-.78,0-1.57-.06-2.35-.07s-1.57,0-2.36,0-1.52,0-2.26,0-1.48.06-2.23.11Z"/><path class="cls-1" d="M353.7,309a10.42,10.42,0,0,1,.87-4.5,10.17,10.17,0,0,1,2.43-3.38,10.75,10.75,0,0,1,3.62-2.13,13.94,13.94,0,0,1,8.89-.08,11.1,11.1,0,0,1,3.66,2.08,10.36,10.36,0,0,1,2.49,3.34,11.52,11.52,0,0,1,.07,9,10.31,10.31,0,0,1-2.43,3.38,11,11,0,0,1-3.62,2.13,13.2,13.2,0,0,1-4.44.76,12.91,12.91,0,0,1-4.45-.69,10.42,10.42,0,0,1-3.65-2.07,9.75,9.75,0,0,1-2.49-3.34A10.43,10.43,0,0,1,353.7,309Zm3.28,0a11.72,11.72,0,0,0,.58,3.62,9.34,9.34,0,0,0,1.64,3,7.62,7.62,0,0,0,2.59,2.09,7.82,7.82,0,0,0,6.87-.06,7.69,7.69,0,0,0,2.55-2.13,9.5,9.5,0,0,0,1.59-3.06,12,12,0,0,0,.53-3.63,12.68,12.68,0,0,0-.59-3.61,9.54,9.54,0,0,0-1.64-3,7.64,7.64,0,0,0-9.46-2,7.7,7.7,0,0,0-2.55,2.12,9.22,9.22,0,0,0-1.59,3.06A11.72,11.72,0,0,0,357,309Z"/><path class="cls-1" d="M412.54,318.61l-5.58.05a46.61,46.61,0,0,1-3.64-4.35,35.94,35.94,0,0,1-3-4.73,5,5,0,0,1-.78-.06l-1-.13-1-.17c-.32-.07-.58-.14-.79-.2v4.83a14.85,14.85,0,0,0,.09,2.15,3,3,0,0,0,.42,1.37,1.87,1.87,0,0,0,1,.77,6.81,6.81,0,0,0,1.8.33v.37c-.78,0-1.57-.06-2.35-.07h-2.35c-.78,0-1.52,0-2.26.06s-1.49.06-2.23.11v-.38a6,6,0,0,0,1.73-.35,1.89,1.89,0,0,0,.94-.78,3.28,3.28,0,0,0,.39-1.38c.05-.57.07-1.29.06-2.15l-.08-10.35a13.51,13.51,0,0,0-.1-2.15,3.16,3.16,0,0,0-.41-1.37,2,2,0,0,0-1-.77,6.38,6.38,0,0,0-1.73-.33v-.37c.66,0,1.32.06,2,.08s1.32,0,2,0a8.88,8.88,0,0,0,1.08-.05l1.38-.12,1.47-.12c.5,0,.94-.06,1.33-.06a11.45,11.45,0,0,1,2.73.32,8.1,8.1,0,0,1,2.52,1.06,6.22,6.22,0,0,1,1.84,1.88,5.09,5.09,0,0,1,.73,2.71,4.51,4.51,0,0,1-.37,1.92,4.79,4.79,0,0,1-1,1.47,5.32,5.32,0,0,1-1.53,1,8,8,0,0,1-1.83.61l1,1.66a21.92,21.92,0,0,0,1.33,1.88c.49.64,1,1.27,1.57,1.89a13.9,13.9,0,0,0,1.74,1.69,10.49,10.49,0,0,0,1.89,1.25,4.92,4.92,0,0,0,1.95.59ZM396.75,308a8,8,0,0,0,2.88.5,5.61,5.61,0,0,0,3.74-1.15,4.45,4.45,0,0,0,1.3-3.63,4.22,4.22,0,0,0-1.48-3.25,5.07,5.07,0,0,0-1.57-.92,5.57,5.57,0,0,0-1.85-.31,9.56,9.56,0,0,0-1.51.08,7.85,7.85,0,0,0-1.46.28c0,1-.05,2-.06,3s0,2.1,0,3.28Z"/><path class="cls-1" d="M432.6,317.24a5.07,5.07,0,0,0,.68.11,7.52,7.52,0,0,1,.87.12l1,.1h.93a15.53,15.53,0,0,0,3.32-.34,9.29,9.29,0,0,0,2.69-1,11.4,11.4,0,0,0,2.29-1.75,21.35,21.35,0,0,0,2.18-2.56l.34.28-2.76,6.24c-.36,0-.72-.06-1.09-.08s-.73,0-1.08,0l-11.64.09c-.6,0-1.2,0-1.8.05s-1.2.06-1.79.11v-.37a6.06,6.06,0,0,0,1.73-.36,1.8,1.8,0,0,0,.92-.78,3.47,3.47,0,0,0,.38-1.38c.05-.57.07-1.29.06-2.15l-.08-10.35c0-.86-.05-1.58-.1-2.15a3.49,3.49,0,0,0-.4-1.37,2,2,0,0,0-1-.77,7.16,7.16,0,0,0-1.77-.32v-.37h8.64l4.34-.07c1.44,0,2.91-.07,4.39-.13v2.57a8,8,0,0,0,.08,1.38c.08.47.09,1,.13,1.53l-.4.13a7.72,7.72,0,0,0-1.09-2.43,5.26,5.26,0,0,0-1.56-1.45,5.65,5.65,0,0,0-1.94-.7,12.87,12.87,0,0,0-2.23-.16c-1.44,0-2.89.08-4.33.22l.06,7.74h1.19a9.88,9.88,0,0,0,1.2-.05,5.86,5.86,0,0,0,3.38-.88,4.19,4.19,0,0,0,1.51-3.12h.37v4.43c0,.73,0,1.48,0,2.23s.05,1.48.05,2.23H440a9.94,9.94,0,0,0-.7-2.12,3.27,3.27,0,0,0-1-1.24,3.59,3.59,0,0,0-1.5-.58,14,14,0,0,0-2.14-.14h-2Z"/><path class="cls-1" d="M494.29,303.56a12.27,12.27,0,0,0-1.06-1.95,9.09,9.09,0,0,0-1.48-1.73,7.37,7.37,0,0,0-1.87-1.2,5.21,5.21,0,0,0-2.23-.45,5.8,5.8,0,0,0-2.89.67,2.45,2.45,0,0,0-1.11,2.34,2.83,2.83,0,0,0,.52,1.71,5,5,0,0,0,1.38,1.28,11.47,11.47,0,0,0,1.94,1l2.22.92c.76.32,1.5.66,2.22,1a9.56,9.56,0,0,1,1.95,1.32,6.45,6.45,0,0,1,1.38,1.78,5.63,5.63,0,0,1,.53,2.45,5.76,5.76,0,0,1-.54,2.62,5.24,5.24,0,0,1-1.48,1.82,6.29,6.29,0,0,1-2.19,1.07,9.41,9.41,0,0,1-2.68.36,7.89,7.89,0,0,1-1.61-.13c-.56-.09-1.1-.19-1.61-.3l-1.41-.31a5.73,5.73,0,0,0-1-.14,1.75,1.75,0,0,0-.65.12l-.65.24c-.19-1.18-.42-2.32-.68-3.44s-.52-2.26-.8-3.43l.4-.22a22.27,22.27,0,0,0,1.36,2.24,14.09,14.09,0,0,0,1.8,2.13,9.69,9.69,0,0,0,2.2,1.6,5.27,5.27,0,0,0,2.59.62,7.25,7.25,0,0,0,1.73-.21,4.3,4.3,0,0,0,1.47-.65,3.14,3.14,0,0,0,1-1.14,3.72,3.72,0,0,0,.35-1.71,3.46,3.46,0,0,0-.92-2.42,8.54,8.54,0,0,0-2.24-1.68,26.07,26.07,0,0,0-2.9-1.32,22.07,22.07,0,0,1-2.91-1.37,8.38,8.38,0,0,1-2.25-1.81,3.93,3.93,0,0,1-.92-2.65,5.07,5.07,0,0,1,1.69-3.89,5.49,5.49,0,0,1,1.82-1.08,6.35,6.35,0,0,1,2.21-.39,13,13,0,0,1,2.06.13c.61.1,1.2.21,1.78.33l1.77.34a9.6,9.6,0,0,0,1.86.16c0,.92,0,1.83.07,2.71s.11,1.75.22,2.64Z"/><path class="cls-1" d="M516.41,316.54l.69.12.86.11c.31,0,.63.08,1,.1a7.21,7.21,0,0,0,.93,0,15.56,15.56,0,0,0,3.33-.34,9.23,9.23,0,0,0,2.68-1,10.84,10.84,0,0,0,2.3-1.75,22.23,22.23,0,0,0,2.17-2.56l.35.28L528,317.74l-1.08-.08h-1.09l-11.64.1h-1.79c-.59,0-1.2.06-1.8.11v-.37a6.06,6.06,0,0,0,1.73-.36,1.85,1.85,0,0,0,.92-.78,3.51,3.51,0,0,0,.38-1.38c0-.57.06-1.29.06-2.15l-.09-10.34a13.58,13.58,0,0,0-.1-2.16A3.32,3.32,0,0,0,513,299a1.86,1.86,0,0,0-1-.76,6.29,6.29,0,0,0-1.77-.33v-.37h8.69c1.44,0,2.89,0,4.33-.07s2.91-.07,4.4-.13V300a10.63,10.63,0,0,0,.07,1.38c0,.46.09,1,.14,1.53l-.41.13a7.74,7.74,0,0,0-1.08-2.42,5.29,5.29,0,0,0-1.56-1.46,5.75,5.75,0,0,0-2-.7,13.82,13.82,0,0,0-2.22-.16c-1.45,0-2.89.08-4.34.22l.07,7.74h2.38a6,6,0,0,0,3.38-.88,4.19,4.19,0,0,0,1.51-3.13H524v6.66c0,.75,0,1.48.06,2.23h-.38A9.92,9.92,0,0,0,523,309a3.54,3.54,0,0,0-1-1.24,3.77,3.77,0,0,0-1.51-.58,15.38,15.38,0,0,0-2.14-.14h-2Z"/><path class="cls-1" d="M553.6,297.56a15,15,0,0,0-2.32.51,2.9,2.9,0,0,0-1.21.71,1.86,1.86,0,0,0-.47,1.06,9.07,9.07,0,0,0-.08,1.56l.12,14.86,1.63.27a12.24,12.24,0,0,0,4.78-.29,8,8,0,0,0,2.44-1.14,9.9,9.9,0,0,0,2-1.88,27.28,27.28,0,0,0,1.82-2.67h.46l-2.32,6.95c-.75,0-1.5-.06-2.25-.07H556l-9.11.07c-.51,0-1,0-1.54.05s-1,.06-1.55.1v-.37a6.94,6.94,0,0,0,1.62-.32,2.8,2.8,0,0,0,.94-.55,1.59,1.59,0,0,0,.44-.79,5.67,5.67,0,0,0,.1-1.09l-.1-12.26a13.44,13.44,0,0,0-.1-2.15,3.29,3.29,0,0,0-.4-1.37,1.81,1.81,0,0,0-.93-.77,6.53,6.53,0,0,0-1.74-.33v-.37c.8,0,1.6.06,2.4.07h2.4c.81,0,1.74,0,2.61-.05s1.75-.06,2.62-.11Z"/><path class="cls-1" d="M582,316l.68.12.87.12,1,.1h.93a16.29,16.29,0,0,0,3.33-.34,10.09,10.09,0,0,0,2.68-1,11.09,11.09,0,0,0,2.29-1.76,21.25,21.25,0,0,0,2.18-2.55l.34.27-2.76,6.25c-.35,0-.71-.07-1.09-.08h-1.08l-11.64.1h-1.8c-.6,0-1.2.06-1.79.1V317a5.74,5.74,0,0,0,1.73-.36,1.76,1.76,0,0,0,.92-.78,3.26,3.26,0,0,0,.37-1.37q.06-.86.06-2.16L579.07,302a13.44,13.44,0,0,0-.1-2.15,3.29,3.29,0,0,0-.4-1.37,1.83,1.83,0,0,0-1-.77,7.67,7.67,0,0,0-1.77-.33V297l2,.05h6.68c1.45,0,2.89,0,4.34-.06s2.91-.08,4.4-.14a4,4,0,0,0,0,.69v1.89a7.93,7.93,0,0,0,.08,1.37c.08.46.09,1,.14,1.54l-.41.12a7.77,7.77,0,0,0-1.09-2.42,5.29,5.29,0,0,0-1.56-1.46,5.85,5.85,0,0,0-1.94-.69,12.89,12.89,0,0,0-2.23-.17c-1.44,0-2.89.09-4.33.22l.06,7.74h2.39a5.86,5.86,0,0,0,3.38-.88,4.19,4.19,0,0,0,1.51-3.12h.37v6.66c0,.74,0,1.49,0,2.23h-.37a9.94,9.94,0,0,0-.7-2.12,3.38,3.38,0,0,0-1-1.25,3.61,3.61,0,0,0-1.51-.57,12.83,12.83,0,0,0-2.14-.14h-2Z"/><path class="cls-1" d="M628.18,303.62a12.47,12.47,0,0,0-1.09-2.55,9,9,0,0,0-1.59-2,6.9,6.9,0,0,0-2.12-1.33,7.23,7.23,0,0,0-2.68-.45,6.66,6.66,0,0,0-3.25.77,6.27,6.27,0,0,0-2.16,2,8.39,8.39,0,0,0-1.22,2.95,14.49,14.49,0,0,0-.35,3.53,11.81,11.81,0,0,0,.52,3.54,8.67,8.67,0,0,0,1.5,2.95,7,7,0,0,0,2.46,2,7.19,7.19,0,0,0,3.39.72,8.42,8.42,0,0,0,5-1.49,13.76,13.76,0,0,0,3.67-4l.78.61a28.59,28.59,0,0,1-2.08,2.8,12,12,0,0,1-2.28,2.06A9.5,9.5,0,0,1,624,317a11.76,11.76,0,0,1-3.28.46,9.81,9.81,0,0,1-3.94-.76,10.1,10.1,0,0,1-3.27-2.17,10.31,10.31,0,0,1-2.24-3.36,11.82,11.82,0,0,1-.07-8.64,10.34,10.34,0,0,1,2.19-3.39,10.09,10.09,0,0,1,7.15-3,17,17,0,0,1,2.14.11l1.91.28,1.76.3A11.25,11.25,0,0,0,628,297a14.2,14.2,0,0,0,.06,1.52c.06.58.09,1.17.16,1.78s.13,1.2.2,1.79.13,1.1.2,1.53Z"/><path class="cls-1" d="M648.48,316.4a6.06,6.06,0,0,0,1.73-.36,1.89,1.89,0,0,0,.94-.78,3.28,3.28,0,0,0,.39-1.38c.05-.57.07-1.28.06-2.15l-.12-14.37a25,25,0,0,0-2.74.15,4.06,4.06,0,0,0-3.29,2.22,15.08,15.08,0,0,0-1.17,2.89l-.4-.11.38-6.08c.87,0,1.72.06,2.57.07h2.57l7.28-.06c.82,0,1.64,0,2.44-.05s1.62-.06,2.45-.11l.48,6.06-.4.13a16.79,16.79,0,0,0-1.21-2.87,4.52,4.52,0,0,0-1.43-1.55,4.61,4.61,0,0,0-1.94-.62,26.2,26.2,0,0,0-2.8-.1l.12,14.37a15,15,0,0,0,.09,2.15,3,3,0,0,0,.42,1.37,1.82,1.82,0,0,0,1,.76,6.09,6.09,0,0,0,1.8.33v.37c-.78,0-1.57-.06-2.35-.07H653c-.79,0-1.51,0-2.25.05s-1.49.06-2.24.11Z"/><path class="cls-1" d="M677,316.16a5.74,5.74,0,0,0,1.73-.36,1.84,1.84,0,0,0,.94-.78,3.28,3.28,0,0,0,.39-1.38c0-.56.06-1.28.06-2.15L680,301.15a14.92,14.92,0,0,0-.09-2.15,3.36,3.36,0,0,0-.42-1.38,1.89,1.89,0,0,0-1-.76,7.18,7.18,0,0,0-1.77-.33v-.37c.87,0,1.71.06,2.52.07h2.53c.68,0,1.36,0,2-.05s1.35-.06,2-.11v.38a5.78,5.78,0,0,0-1.7.35,1.85,1.85,0,0,0-.92.78,3.19,3.19,0,0,0-.37,1.38,17.59,17.59,0,0,0-.06,2.16l.08,10.34a13.44,13.44,0,0,0,.1,2.15,2.85,2.85,0,0,0,.41,1.37,1.79,1.79,0,0,0,1,.77,6.35,6.35,0,0,0,1.79.32v.38c-.79,0-1.57-.06-2.36-.08s-1.57,0-2.35,0-1.52,0-2.26.05-1.49.06-2.23.11Z"/><path class="cls-1" d="M700.28,306.15a10.53,10.53,0,0,1,.88-4.49,10,10,0,0,1,2.43-3.39,10.75,10.75,0,0,1,3.62-2.13,14.15,14.15,0,0,1,8.89-.08,11,11,0,0,1,3.65,2.08,10.22,10.22,0,0,1,2.49,3.34,11.57,11.57,0,0,1,.08,9,10.13,10.13,0,0,1-2.44,3.38,10.53,10.53,0,0,1-3.62,2.13,13.15,13.15,0,0,1-4.43.77,13.4,13.4,0,0,1-4.45-.69,10.57,10.57,0,0,1-3.66-2.08,9.94,9.94,0,0,1-2.49-3.33A10.59,10.59,0,0,1,700.28,306.15Zm3.28,0a11.44,11.44,0,0,0,.59,3.62,9.34,9.34,0,0,0,1.64,3,7.77,7.77,0,0,0,2.58,2.08,7.88,7.88,0,0,0,6.88-.06,8.13,8.13,0,0,0,2.55-2.12,9.63,9.63,0,0,0,1.58-3.07,12.08,12.08,0,0,0-.06-7.24,9.51,9.51,0,0,0-1.63-3,8.07,8.07,0,0,0-2.59-2.09,7.89,7.89,0,0,0-6.87.06,7.81,7.81,0,0,0-2.55,2.12,9.27,9.27,0,0,0-1.59,3.07,11.59,11.59,0,0,0-.53,3.6Z"/><path class="cls-1" d="M736.34,295.66c.73,0,1.41.07,2.06.08H742a12.33,12.33,0,0,0,1.33-.11,21.2,21.2,0,0,0,1.35,1.68l2.14,2.57c.8,1,1.66,2,2.58,3.07s1.8,2.15,2.66,3.19,1.64,2,2.36,2.89,1.29,1.62,1.7,2.2h.07V304a34,34,0,0,0-.17-3.45,8.67,8.67,0,0,0-.58-2.45,3.4,3.4,0,0,0-1.19-1.51,4,4,0,0,0-2-.61v-.37c.72,0,1.45.06,2.18.08s1.46,0,2.18,0,1.33,0,2-.05,1.35-.06,2-.11v.38A4,4,0,0,0,758,297a4.15,4.15,0,0,0-.7,2.71l.13,16.41h-1.14c-1.15-1.76-2.37-3.48-3.65-5.14s-2.56-3.24-3.82-4.74-2.48-2.88-3.66-4.16l-3.17-3.43v8.58c0,1.84.06,3.29.15,4.35a6.82,6.82,0,0,0,.54,2.44,2.12,2.12,0,0,0,1.25,1.13,9.79,9.79,0,0,0,2.28.44v.4c-1,0-2.07-.06-3.06-.07H740c-.6,0-1.19,0-1.76.05s-1.17.06-1.77.11v-.37c.7-.11,1.31-.21,1.84-.32a3.24,3.24,0,0,0,1.3-.47,2,2,0,0,0,.76-.93,4.62,4.62,0,0,0,.28-1.69l.26-14.22a8.45,8.45,0,0,0-2.18-1.25,20.51,20.51,0,0,0-2.42-.75Z"/></g></g></g></g></svg>